G04 EAGLE Gerber RS-274X export*
G75*
%MOMM*%
%FSLAX34Y34*%
%LPD*%
%INTop Paste*%
%IPPOS*%
%AMOC8*
5,1,8,0,0,1.08239X$1,22.5*%
G01*
%ADD10R,0.549200X1.099200*%
%ADD11R,0.249200X1.099200*%
%ADD12R,0.249200X1.449200*%
%ADD13R,1.449200X0.249200*%
%ADD14R,1.469200X0.879200*%
%ADD15R,1.346200X1.041400*%
%ADD16R,1.149200X0.549200*%
%ADD17R,0.799200X0.249200*%
%ADD18R,0.799200X0.349200*%
%ADD19R,1.049200X0.949200*%
%ADD20R,0.949200X1.049200*%
%ADD21R,0.711200X0.914400*%
%ADD22R,0.914400X0.711200*%


D10*
X43000Y87550D03*
X51000Y87550D03*
D11*
X62500Y87550D03*
X72500Y87550D03*
X77500Y87550D03*
X87500Y87550D03*
D10*
X107000Y87550D03*
X99000Y87550D03*
D11*
X92500Y87550D03*
X82500Y87550D03*
X67500Y87550D03*
X57500Y87550D03*
D12*
X112500Y265000D03*
X107500Y265000D03*
X102500Y265000D03*
X97500Y265000D03*
X92500Y265000D03*
X87500Y265000D03*
X82500Y265000D03*
X77500Y265000D03*
X72500Y265000D03*
X67500Y265000D03*
X62500Y265000D03*
X57500Y265000D03*
X52500Y265000D03*
X47500Y265000D03*
X42500Y265000D03*
X37500Y265000D03*
D13*
X17500Y245000D03*
X17500Y240000D03*
X17500Y235000D03*
X17500Y230000D03*
X17500Y225000D03*
X17500Y220000D03*
X17500Y215000D03*
X17500Y210000D03*
X17500Y205000D03*
X17500Y200000D03*
X17500Y195000D03*
X17500Y190000D03*
X17500Y185000D03*
X17500Y180000D03*
X17500Y175000D03*
X17500Y170000D03*
D12*
X37500Y150000D03*
X42500Y150000D03*
X47500Y150000D03*
X52500Y150000D03*
X57500Y150000D03*
X62500Y150000D03*
X67500Y150000D03*
X72500Y150000D03*
X77500Y150000D03*
X82500Y150000D03*
X87500Y150000D03*
X92500Y150000D03*
X97500Y150000D03*
X102500Y150000D03*
X107500Y150000D03*
X112500Y150000D03*
D13*
X132500Y170000D03*
X132500Y175000D03*
X132500Y180000D03*
X132500Y185000D03*
X132500Y190000D03*
X132500Y195000D03*
X132500Y200000D03*
X132500Y205000D03*
X132500Y210000D03*
X132500Y215000D03*
X132500Y220000D03*
X132500Y225000D03*
X132500Y230000D03*
X132500Y235000D03*
X132500Y240000D03*
X132500Y245000D03*
D14*
X136544Y315000D03*
X136544Y335000D03*
D15*
X55000Y108102D03*
X55000Y126898D03*
D16*
X12500Y127000D03*
X12500Y117500D03*
X12500Y108000D03*
X37500Y108000D03*
X37500Y127000D03*
D17*
X120750Y287500D03*
X120750Y292500D03*
X120750Y297500D03*
X120750Y302500D03*
X89250Y302500D03*
X89250Y297500D03*
X89250Y292500D03*
X89250Y287500D03*
D18*
X54250Y288500D03*
X54250Y295000D03*
X54250Y301500D03*
X35750Y301500D03*
X35750Y295000D03*
X35750Y288500D03*
D19*
X75000Y333500D03*
X75000Y316500D03*
X60000Y333500D03*
X60000Y316500D03*
X105000Y316500D03*
X105000Y333500D03*
X45000Y316500D03*
X45000Y333500D03*
D20*
X90000Y316500D03*
X90000Y333500D03*
X30000Y316500D03*
X30000Y333500D03*
D19*
X137500Y41500D03*
X137500Y58500D03*
X12500Y44000D03*
X12500Y61000D03*
D20*
X121500Y120000D03*
X138500Y120000D03*
D21*
X122126Y135000D03*
X137874Y135000D03*
X27874Y150000D03*
X12126Y150000D03*
D15*
X95000Y126898D03*
X95000Y108102D03*
D21*
X122126Y150000D03*
X137874Y150000D03*
X27874Y265000D03*
X12126Y265000D03*
D22*
X75000Y287126D03*
X75000Y302874D03*
D20*
X138500Y105000D03*
X121500Y105000D03*
D22*
X137500Y72126D03*
X137500Y87874D03*
D19*
X15000Y316500D03*
X15000Y333500D03*
X120000Y316500D03*
X120000Y333500D03*
M02*
