M48
;GenerationSoftware,Autodesk,EAGLE,9.6.2*%
;CreationDate,2024-12-30T13:32:36Z*%
FMAT,2
ICI,OFF
METRIC,TZ,000.000
T6C0.305
T5C0.406
T4C0.500
T3C0.600
T2C0.650
T1C1.016
%
G90
M71
T1
X10040Y35750
X7500Y35750
X4960Y35750
T2
X10390Y7680
X4610Y7680
T3
X11820Y8180
X3180Y8180
X11820Y4000
X3180Y4000
T4
X11500Y38484
X3500Y38484
X2500Y38484
X500Y38484
X9500Y38484
X14500Y38484
X13500Y38484
X12500Y38484
X1500Y38484
X10500Y38484
X8500Y38484
X7500Y38484
X6500Y38484
X5500Y38484
X4500Y38484
T5
X4312Y9980
X3810Y13310
X2286Y11735
X7439Y29328
X8382Y24028
X1219Y13411
X1270Y9652
X10519Y10057
X10668Y12497
X4404Y11686
X4572Y12700
T6
X8280Y7595
X7214Y7722
X4077Y19947
X3678Y16509
X3912Y23622
X4013Y22733
X13850Y9601
X10973Y16459
X12040Y17526
X12040Y20422
X6248Y24892
X2362Y27305
X12802Y15850
X12954Y28651
X2743Y29413
X13868Y15850
X3912Y24443
X7065Y25139
X12040Y21192
X12033Y16596
X1052Y15992
X3768Y17814
X1219Y27432
X6096Y34138
X4520Y30043
X8284Y30626
X6706Y34138
X14009Y30692
X12856Y30321
X13704Y32216
X12954Y9601
X4682Y16807
M30